<?xml version="1.0" encoding="UTF-8"?>
<svg id="a" xmlns="http://www.w3.org/2000/svg" width="294" height="150.71" viewBox="0 0 294 150.71">
  <defs>
    <style>
      .b {
        fill: #bf003d;
      }

      .b, .c {
        stroke-width: 0px;
      }

      .c {
        fill: #fff;
      }
    </style>
  </defs>
  <path class="c" d="m134.35,111.41l-3.59,10.69h-3.34l13.15-38.07h2.99l13.07,38.07h-3.34l-3.59-10.69h-15.36,0Zm14.46-2.78l-6.74-20.02-6.78,19.95,13.52.06h0Z"/>
  <path class="c" d="m185.36,109.1c-.64-.93-1.46-1.71-2.42-2.31-1.04-.63-2.14-1.16-3.29-1.56-1.22-.43-2.37-.79-3.51-1.11s-2.74-.85-4.17-1.41c-1.36-.5-2.66-1.15-3.87-1.95-1.21-.78-2.26-1.79-3.08-2.97-.84-1.27-1.27-2.76-1.24-4.28,0-1.45.38-2.88,1.14-4.13.76-1.16,1.75-2.15,2.9-2.91,1.27-.82,2.65-1.43,4.11-1.82,1.49-.41,3.03-.62,4.58-.62,1.67,0,3.33.26,4.92.77,1.47.47,2.86,1.2,4.08,2.14,1.18.92,2.14,2.08,2.82,3.4.72,1.37,1.12,2.88,1.15,4.43h-3.42c-.14-1.15-.47-2.26-.98-3.29-.48-.98-1.16-1.84-1.99-2.54-.85-.74-1.84-1.3-2.91-1.65-1.2-.4-2.46-.6-3.72-.6-1.13,0-2.26.15-3.36.43-1.05.26-2.06.68-2.97,1.26-.86.55-1.59,1.28-2.14,2.14-.55.9-.83,1.94-.81,2.99-.04,1.12.29,2.23.94,3.14.66.86,1.48,1.59,2.42,2.14,1.02.62,2.1,1.12,3.23,1.5,1.18.41,2.31.75,3.4,1.05,1.5.43,2.97.92,4.43,1.5,1.45.54,2.83,1.26,4.11,2.14,1.17.82,2.15,1.87,2.91,3.08.77,1.29,1.16,2.77,1.13,4.28.03,1.51-.37,2.99-1.15,4.28-.78,1.2-1.8,2.22-2.99,2.99-1.31.84-2.76,1.46-4.28,1.82-1.55.4-3.15.6-4.75.6-1.85,0-3.7-.27-5.47-.79-1.7-.51-3.28-1.34-4.66-2.44-1.15-.88-2.11-2-2.8-3.27-.7-1.32-1.09-2.78-1.13-4.28h3.36c.14,1.23.53,2.42,1.15,3.49.6,1.01,1.4,1.88,2.35,2.57.99.71,2.1,1.24,3.27,1.56,2.47.61,5.04.61,7.51,0,1.09-.25,2.12-.68,3.06-1.28.87-.54,1.6-1.27,2.14-2.14.58-.93.87-2.02.83-3.12.08-1.13-.2-2.26-.81-3.21l-.02-.02Z"/>
  <path class="c" d="m219.56,109.1c-.65-.92-1.48-1.71-2.44-2.31-1.05-.64-2.16-1.16-3.32-1.56-1.2-.43-2.37-.79-3.51-1.11s-2.74-.85-4.28-1.41c-1.36-.5-2.66-1.15-3.87-1.95-1.2-.79-2.25-1.8-3.08-2.97-.84-1.26-1.27-2.76-1.22-4.28-.03-1.46.37-2.89,1.13-4.13.8-1.17,1.83-2.16,3.04-2.91,1.26-.82,2.64-1.43,4.08-1.82,1.5-.41,3.05-.62,4.6-.62,1.66-.01,3.32.25,4.9.77,1.47.47,2.84,1.2,4.06,2.14,1.14.92,2.08,2.07,2.76,3.38.71,1.37,1.1,2.88,1.13,4.43h-3.27c-.13-1.15-.47-2.26-.98-3.29-.47-.98-1.15-1.85-1.99-2.54-.85-.74-1.84-1.31-2.91-1.67-1.2-.39-2.46-.59-3.72-.58-1.13,0-2.26.15-3.36.43-1.05.26-2.06.68-2.97,1.26-.86.55-1.59,1.28-2.14,2.14-.56.9-.85,1.94-.83,2.99-.03,1.12.31,2.23.96,3.14.66.86,1.48,1.59,2.42,2.14,1.02.62,2.1,1.12,3.23,1.5,1.18.38,2.31.75,3.4,1.05,1.5.43,2.97.92,4.43,1.5,1.45.54,2.83,1.26,4.11,2.14,1.17.82,2.16,1.87,2.91,3.08.77,1.29,1.16,2.77,1.11,4.28.04,1.51-.36,3-1.15,4.28-.77,1.21-1.79,2.23-2.99,2.99-1.31.85-2.76,1.47-4.28,1.82-3.35.88-6.88.81-10.2-.19-1.69-.5-3.28-1.32-4.66-2.42-1.15-.89-2.11-2.01-2.8-3.29-.71-1.32-1.09-2.78-1.13-4.28h3.36c.13,1.24.53,2.43,1.15,3.51.6,1,1.39,1.87,2.35,2.54.98.73,2.09,1.26,3.27,1.56,1.3.36,2.63.54,3.98.54,1.18,0,2.36-.14,3.51-.41,1.09-.25,2.12-.68,3.06-1.28.87-.54,1.6-1.27,2.14-2.14.58-.94.87-2.02.83-3.12.1-1.17-.19-2.33-.81-3.32h0Z"/>
  <path class="c" d="m236.03,103.77v15.51h20.62v2.74h-23.91v-38.05h23.78v2.78h-20.49v14.31h17.86v2.72h-17.86,0Z"/>
  <path class="c" d="m280.17,86.75v35.29h-3.27v-35.29h-12.83v-2.78h28.94v2.78h-12.84Z"/>
  <rect class="c" x="116.09" y="73.72" width="176.91" height="3.38"/>
  <path class="c" d="m137.58,15.89l-10.12,50.94h13.69l1.39-7.25h11.25l1.43,7.25h15.96l-11.46-50.94h-22.14Zm7.27,31.5l2.78-14.11,3.23,14.11h-6.01Z"/>
  <path class="c" d="m191.75,29.45c2.74,0,4.43,1.6,5.24,5.69h15.78c-1.13-8.04-4.28-12.32-8.11-15.1-3.98-2.83-8.78-4.29-13.67-4.15-5.51.07-10.76,2.38-14.52,6.42-4.28,4.28-6.42,10.55-6.42,18.65s2.14,14.42,6.05,18.95c3.79,4.41,9.35,6.89,15.16,6.78,5.16.31,10.25-1.37,14.22-4.68,4.39-3.66,7.05-8.99,7.36-14.69h-15.83c-.75,4.08-2.46,5.82-5.28,5.82-3.79,0-5.69-3.92-5.69-11.81s1.97-11.83,5.69-11.87h.02Z"/>
  <path class="c" d="m252.64,15.89h-38.77v13.37h11.72v37.58h15.31V29.3h11.72s.02-13.41.02-13.41Z"/>
  <path class="c" d="m280.79,36.49l-6.42-2.46c-2.14-.77-3.1-1.8-3.1-3.08s.92-2.14,2.74-2.14c1.89.02,3.62,1.09,4.47,2.78h14.52c-.39-1.64-1.01-3.22-1.84-4.68h0v-.13c-.36-.64-.75-1.35-1.24-2.14-.21-.33-.44-.65-.68-.96l-.6-.85-.17-.17c-3.47-4.43-8.84-6.94-14.46-6.76-4.95-.26-9.85,1.17-13.88,4.06-3.44,2.72-5.18,6.89-5.18,12.55s4.28,10.52,12.66,13.67l5.39,2.14c1.54.37,2.62,1.75,2.61,3.34,0,1.6-1.13,2.4-3.44,2.4-3.76-.08-6.91-2.87-7.46-6.59h-13.6c.38,3.51,1.54,6.88,3.4,9.88l.13.19.19.3.13.11c4.28,5.92,10.41,8.92,18.65,8.92,4.91.25,9.75-1.27,13.64-4.28,3.38-2.8,5.09-7.12,5.09-12.96s-3.81-10.2-11.55-13.13h0Z"/>
  <path class="b" d="m0,15.89v118.95h118.89V15.89H0Zm52.59,100.52H18.54v-34.22h34.05v34.22Zm0-47.76H18.54v-34.15h34.05v34.15Zm47.71,47.76h-34v-34.22h34v34.22Zm0-47.76h-34v-34.15h34v34.15Z"/>
  <path class="c" d="m127.42,134.74h-.21v-7.85h2.14c.3,0,.61.04.9.13.29.08.57.21.81.38.23.17.43.39.58.64.21.51.21,1.09,0,1.6-.06.19-.15.36-.28.51-.12.16-.28.3-.45.41h.21c.2.12.39.27.56.43.15.18.27.38.36.6.1.23.14.48.13.73.02.61-.23,1.21-.68,1.62-.23.19-.49.34-.77.45-.3.1-.61.17-.92.19l-2.38.15h0Zm.47-.68h1.83c.22.03.44.03.66,0,.2-.09.38-.19.56-.32.32-.29.5-.7.49-1.13,0-.21-.05-.42-.15-.6-.09-.17-.21-.32-.36-.43-.13-.16-.29-.3-.47-.41-.21-.03-.43-.03-.64,0h-1.92v2.89h0Zm0-3.66h1.5c.22.02.44.02.66,0,.2-.05.39-.13.56-.26.15-.11.28-.26.36-.43.1-.19.15-.4.15-.62.02-.43-.19-.84-.56-1.07-.17-.12-.37-.21-.58-.26-.23-.03-.47-.03-.71,0h-1.39v2.63h.01Z"/>
  <path class="c" d="m136.02,134.83c-.7,0-1.37-.29-1.82-.83-.21-.25-.37-.54-.47-.86-.11-.32-.17-.66-.17-1v-5.24h.66v5.24c0,.26.04.52.13.77.09.23.22.44.38.62.15.19.34.34.56.45.48.22,1.02.22,1.5,0,.2-.11.38-.26.51-.45.15-.19.26-.41.34-.64.08-.25.13-.51.13-.77v-5.2h.66v5.22c0,.34-.05.68-.15,1-.22.63-.67,1.16-1.26,1.48-.32.15-.66.22-1.01.21h0Z"/>
  <path class="c" d="m144.64,134.72h-4.51v-.66h1.88v-6.42h-1.88v-.75h4.51v.68h-1.95v6.42h1.95v.73Z"/>
  <path class="c" d="m151.14,134.72h-4.64v-7.83h.68v7.17h3.96v.66Z"/>
  <path class="c" d="m152.91,134.74h-.19v-7.85h2.14c.3,0,.6.06.88.17.27.09.52.21.75.36.21.17.41.36.58.58.16.22.31.46.43.71.12.26.22.53.28.81.02.28.02.56,0,.83v1.03c.03.28.03.56,0,.83-.06.27-.15.54-.28.79-.11.25-.25.49-.43.71-.17.21-.36.41-.58.58-.23.17-.48.3-.75.39-.28.1-.58.15-.88.15l-1.95-.09Zm.47-.68h1.41c.67-.02,1.29-.34,1.69-.88.14-.18.25-.37.34-.58.19-.42.28-.87.28-1.33v-.92c.02-.23.02-.47,0-.71-.06-.22-.13-.43-.21-.64-.12-.24-.27-.47-.43-.68-.17-.19-.38-.36-.6-.49l-.47-.17c-.18-.02-.36-.02-.54,0h-1.39l-.08,6.4Z"/>
  <path class="c" d="m163.42,134.72h-4.53v-.66h1.88v-6.42h-1.88v-.75h4.53v.68h-1.95v6.42h1.95v.73Z"/>
  <path class="c" d="m169.68,134.78h-.28l-3.64-6.42v6.42h-.66v-7.89h.54l3.64,6.42v-6.42h.68v7.83h-.25l-.02.06h0Z"/>
  <path class="c" d="m174.26,134.82c-.57,0-1.12-.19-1.56-.56-.21-.17-.39-.38-.54-.6-.15-.23-.27-.47-.36-.73-.1-.25-.18-.51-.24-.77-.02-.27-.02-.54,0-.81v-1.22c-.03-.26-.03-.51,0-.77.04-.26.11-.51.21-.75.09-.25.2-.48.34-.71.15-.22.33-.41.54-.58.2-.17.42-.3.66-.38.58-.21,1.22-.21,1.8,0,.28.12.54.27.77.47.45.44.73,1.01.81,1.62v.19h-.67c-.06-.24-.15-.48-.26-.71-.1-.19-.23-.36-.39-.51-.15-.15-.34-.26-.54-.34-.43-.16-.9-.16-1.33,0-.18.07-.35.17-.49.3-.3.28-.53.62-.66,1.01-.09.2-.15.41-.17.62-.02.21-.02.43,0,.64v1.13c-.02.22-.02.44,0,.66.03.22.08.44.17.64.07.21.16.41.28.6.11.17.25.32.41.45.14.15.32.26.51.32.2.08.42.13.64.13h.54l.49-.11.47-.21.32-.28v-1.88h-2.03v-.75h2.69v2.84h0c-.16.17-.34.32-.54.45h0c-.18.13-.38.24-.6.3-.21.08-.42.13-.64.17l-.66.11.03.02Z"/>
  <path class="c" d="m187.01,134.72h-.66v-2.95l-2.59-4.85h.79l2.14,4.11,2.14-4.11h.79l-2.61,4.85v2.95h0Z"/>
  <path class="c" d="m193,134.82c-.29,0-.58-.04-.86-.15-.25-.1-.48-.25-.68-.43-.19-.18-.36-.39-.49-.62-.14-.22-.26-.46-.34-.71-.16-.5-.25-1.02-.28-1.54v-1.11c-.02-.26-.02-.51,0-.77.05-.26.12-.52.21-.77.09-.25.19-.49.32-.73.15-.23.32-.43.51-.62.19-.17.42-.31.66-.41.55-.21,1.16-.21,1.71,0,.24.1.46.24.66.41.19.18.36.39.49.62.14.23.26.47.34.73.09.25.15.51.19.77.02.26.02.51,0,.77v1.11c.02.26.02.53,0,.79-.04.26-.11.52-.19.77-.09.25-.2.49-.32.73-.15.22-.32.42-.51.6-.2.17-.42.32-.66.43-.25.09-.51.13-.77.13h0Zm0-7.36c-.21-.03-.41-.03-.62,0-.17.08-.33.19-.47.32-.15.14-.28.3-.39.47-.11.19-.19.39-.26.6-.07.21-.12.42-.15.64v2.52c-.02.22.03.45.15.64.06.21.15.41.26.6.11.17.24.33.39.47.14.14.31.24.49.32.4.15.84.15,1.24,0,.18-.09.34-.19.49-.32.13-.15.25-.3.36-.47.1-.19.19-.39.26-.6-.02-.22.03-.45.15-.64.15-.21,0-.43,0-.64v-1.78c.02-.22-.03-.45-.15-.64-.06-.2-.15-.39-.26-.58-.1-.17-.23-.33-.39-.47-.13-.14-.29-.26-.47-.32-.21-.09-.44-.13-.66-.13h.03Z"/>
  <path class="c" d="m199.58,134.83c-.7,0-1.37-.29-1.82-.83-.21-.25-.37-.54-.47-.86-.11-.32-.17-.66-.17-1v-5.24h.66v5.24c0,.26.04.52.13.77.07.23.19.45.34.64s.34.34.56.45c.48.22,1.02.22,1.5,0,.22-.11.41-.26.56-.45s.26-.41.34-.64c.08-.25.13-.51.13-.77v-5.22h.66v5.22c0,.34-.05.68-.15,1-.22.63-.67,1.16-1.26,1.48-.32.15-.66.22-1.01.21h0Z"/>
  <path class="c" d="m208.89,134.74h-.6l-1.81-3.19h-1.89v3.19h-.66v-7.85h2.14c.32,0,.64.07.94.19.29.1.55.26.77.47.23.2.41.45.54.73.21.56.21,1.17,0,1.73-.08.22-.2.43-.34.62-.16.17-.34.33-.54.47l-.45.26,1.75,3.04.15.34h0Zm-4.28-3.85h1.8c.21-.02.41-.07.6-.15.19-.08.36-.21.49-.36.15-.14.26-.32.32-.51.18-.41.18-.89,0-1.3-.09-.19-.21-.37-.36-.51-.17-.14-.35-.26-.56-.34-.23-.08-.47-.13-.71-.13h-1.56l-.02,3.31h0Z"/>
  <path class="c" d="m216.58,134.74h-.19v-7.85h2.14c.3,0,.6.06.88.17.26.09.52.21.75.36.21.17.41.36.58.58.16.22.31.46.43.71.13.26.21.53.26.81.03.28.03.56,0,.83v1.03c0,.56-.13,1.12-.36,1.62-.11.25-.25.49-.43.71-.17.21-.36.41-.58.58-.47.34-1.04.53-1.62.54l-1.84-.09h-.02Zm.47-.68h1.41c.23,0,.47-.05.68-.13.2-.07.39-.17.56-.3s.32-.28.45-.45c.14-.18.25-.37.34-.58s.16-.42.21-.64c.02-.23.02-.46,0-.68v-.92c0-.23,0-.46,0-.68-.06-.22-.13-.45-.21-.66-.12-.24-.26-.46-.43-.66-.16-.2-.37-.37-.6-.49-.15-.09-.31-.15-.47-.19h-1.93l-.02,6.39h.01Z"/>
  <path class="c" d="m228.03,134.74h-.6l-1.82-3.19h-1.86v3.19h-.66v-7.85h2.14c.32,0,.64.07.94.19.29.1.55.26.77.47.23.2.41.45.54.73.21.56.21,1.17,0,1.73-.08.22-.2.43-.34.62-.16.17-.34.33-.54.47-.14.09-.29.18-.45.26l1.73,3.04.15.34h0Zm-4.28-3.85h1.78c.21-.02.42-.07.62-.15.19-.09.35-.21.49-.36.13-.15.24-.33.32-.51.04-.44,0-.88-.13-1.3-.09-.2-.22-.37-.39-.51-.16-.15-.35-.27-.56-.34-.23-.09-.46-.13-.71-.13h-1.54l.11,3.31h0Z"/>
  <path class="c" d="m234.14,134.72h-4.64v-7.83h4.64v.68h-3.96v2.78h3.46v.68h-3.46v3.02h3.96v.66h0Z"/>
  <path class="c" d="m241.24,134.72h-.71l-.73-2.14h-2.89l-.73,2.14h-.71l2.57-7.81h.6l2.59,7.81h0Zm-4.11-2.89h2.4l-1.24-3.72-1.16,3.72h0Z"/>
  <path class="c" d="m247.42,134.74h-.68v-6.27l-1.58,3.85h-.54l-1.45-3.74v6.16h-.66v-7.85h.73l1.67,4.28,1.75-4.28h.77v7.85h-.01Zm-4.51-7.44v.21h.13v-.17l-.13-.04Zm3.96.13h.15v-.15h0l-.15.15Z"/>
  <path class="c" d="m260.47,134.72h-.71l-.73-2.14h-2.89l-.73,2.14h-.71l2.57-7.81h.56l2.63,7.81h.01Zm-4.11-2.89h2.42l-1.22-3.72-1.2,3.72Z"/>
  <path class="c" d="m264.13,134.82c-.36,0-.71-.06-1.05-.17-.33-.1-.64-.27-.9-.49-.23-.19-.41-.43-.54-.71-.14-.29-.22-.6-.24-.92v-.21h.66v.17c.02.25.09.5.21.73.11.19.26.37.43.51.2.13.41.24.64.3.48.13.98.13,1.45,0,.21-.06.41-.15.6-.26.36-.23.57-.63.56-1.05,0-.23-.06-.45-.17-.64h0c-.1-.2-.26-.36-.45-.47-.19-.15-.41-.26-.64-.34l-.71-.26-.75-.26c-.26-.09-.5-.21-.73-.36-.25-.17-.47-.39-.64-.64-.34-.57-.34-1.29,0-1.86.15-.25.34-.47.58-.64s.51-.29.79-.36c.59-.19,1.23-.19,1.82,0,.28.11.55.27.77.47.22.2.41.45.54.73.13.29.2.6.21.92v.24h-.66v-.17c-.02-.23-.09-.46-.19-.66-.08-.19-.21-.37-.36-.51-.16-.14-.35-.26-.56-.34-.44-.15-.91-.15-1.35,0-.2.05-.4.13-.58.24-.17.11-.31.26-.41.43-.1.18-.15.37-.15.58-.01.22.04.43.15.62.12.16.27.31.43.43.19.13.4.24.62.32l.71.24c.28.08.56.18.83.3.28.1.55.25.79.43.23.17.43.39.58.64.31.59.31,1.29,0,1.88-.14.26-.34.48-.58.64-.24.17-.51.3-.79.39-.31.09-.62.14-.94.15l.02-.04Z"/>
  <path class="c" d="m270.74,134.82c-.36,0-.72-.06-1.07-.17-.32-.11-.62-.27-.88-.49-.24-.19-.43-.43-.56-.71-.13-.29-.21-.6-.24-.92v-.21h.66v.17c.03.25.1.5.21.73.11.2.27.37.45.51.19.14.4.24.62.3.48.13.98.13,1.45,0,.21-.06.41-.15.6-.26.17-.11.31-.26.41-.43.1-.19.15-.4.15-.62.02-.22-.03-.45-.15-.64h0c-.12-.19-.27-.35-.45-.47-.2-.14-.42-.25-.64-.34l-.71-.26c-.26-.07-.52-.15-.77-.26-.26-.09-.5-.21-.73-.36-.25-.17-.47-.39-.64-.64-.18-.3-.27-.64-.26-.98-.02-.31.06-.62.24-.88.14-.26.34-.48.58-.64.24-.17.51-.3.79-.36.58-.19,1.22-.19,1.8,0,.28.11.55.27.77.47.23.2.41.45.54.73.14.29.21.6.21.92v.24h-.66v-.17c-.03-.23-.1-.45-.19-.66-.18-.4-.51-.7-.92-.85-.44-.15-.91-.15-1.35,0-.21.06-.41.15-.6.26-.16.12-.3.26-.41.43-.1.17-.16.37-.15.58,0,.21.05.42.17.6.11.17.26.32.43.43.19.13.4.24.62.32l.68.24.83.3c.28.11.55.25.79.43.23.18.43.41.58.66.32.58.32,1.28,0,1.86-.13.27-.33.5-.58.66-.24.17-.51.3-.79.39-.28.07-.57.11-.86.13l.03-.04Z"/>
  <path class="c" d="m279.48,134.72h-4.62v-7.83h4.62v.68h-3.96v2.78h3.49v.68h-3.49v3.02h3.96v.66h0Z"/>
  <path class="c" d="m283.97,134.72h-.66v-7.14h-2.46v-.66h5.58v.66h-2.46v7.14Z"/>
  <path class="c" d="m290.24,134.82c-.36,0-.72-.06-1.07-.17-.33-.11-.63-.28-.9-.49-.23-.2-.41-.44-.54-.71-.13-.29-.21-.6-.24-.92v-.21h.66v.17c.02.25.09.5.21.73.11.2.27.37.45.51.19.13.4.23.62.3.48.13.98.13,1.45,0,.21-.06.41-.15.6-.26.17-.11.31-.26.41-.43.1-.19.15-.4.15-.62.02-.22-.03-.45-.15-.64h0c-.12-.19-.27-.35-.45-.47-.19-.1-.39-.18-.6-.24l-.71-.26c-.26-.07-.52-.15-.77-.26-.26-.09-.5-.21-.73-.36-.25-.17-.47-.39-.64-.64-.18-.3-.27-.64-.26-.98-.02-.31.06-.62.24-.88.14-.26.34-.48.58-.64.24-.17.51-.3.79-.36.58-.19,1.22-.19,1.8,0,.57.21,1.04.64,1.3,1.2.14.29.21.6.21.92v.13h-.64v-.17c-.02-.23-.09-.46-.19-.66-.08-.19-.21-.37-.36-.51-.17-.14-.35-.26-.56-.34-.44-.15-.91-.15-1.35,0-.21.04-.4.12-.58.24-.17.1-.31.25-.41.43-.11.17-.17.37-.17.58s.06.43.17.62c.12.16.27.31.43.43.19.13.4.24.62.32l.71.24c.28.08.55.18.81.3.28.1.55.24.79.43.24.17.45.39.6.64.31.59.31,1.29,0,1.88-.15.25-.34.47-.58.64-.25.18-.52.31-.81.39-.3.1-.61.15-.92.15l.03-.03Z"/>
</svg>