<?xml version="1.0" encoding="utf-8"?>
<!-- Generator: Adobe Illustrator 26.0.0, SVG Export Plug-In . SVG Version: 6.00 Build 0)  -->
<svg version="1.1" id="Layer_1" xmlns="http://www.w3.org/2000/svg" xmlns:xlink="http://www.w3.org/1999/xlink" x="0px" y="0px"
     viewBox="0 0 140 41" style="enable-background:new 0 0 140 41;" xml:space="preserve" role="img" aria-labelledby="title desc">
    <title id="title">Hatil Logo</title>
    <desc id="desc">The official logo of HATIL Furnituire, elegantly designed in red and white, symbolizes the brand's commitment to excellence in furniture design and sustainability. This logo stands as a beacon of quality and eco-friendly manufacturing in the furniture industry.</desc>
    <style type="text/css">
        .st0{fill:#ED1C24;}
        .st1{fill:#FFFFFF;}
    </style>
    <g>
	<g>
		<rect class="st0" width="140" height="41"/>
		<g>
			<polygon class="st1" points="27.3,16 18.7,16 18.7,7.1 10.1,7.1 10.1,33.9 18.7,33.9 18.7,23.4 27.3,23.4 27.3,33.9 35.9,33.9 
				35.9,7.1 27.3,7.1"/>
			<path class="st1" d="M48.2,7.1l-9.7,26.9h8.8l1-4.5h9.4l1.4,4.5h8.6l-10-26.9H48.2z M50.2,23.5l2.7-8.8l2.7,8.8H50.2z"/>
			<polygon class="st1" points="65.3,13.9 73.9,13.9 73.9,33.9 82.6,33.9 82.6,13.9 91,13.9 91,7.1 65.3,7.1"/>
			<rect x="94.4" y="7.1" class="st1" width="8.6" height="26.9"/>
			<polygon class="st1" points="117.3,7.1 108.7,7.1 108.7,33.9 130.1,33.9 130.1,27.2 117.3,27.2"/>
		</g>
	</g>
</g>
<g>
</g>
<g>
</g>
<g>
</g>
<g>
</g>
<g>
</g>
<g>
</g>
</svg>
