<svg xmlns="http://www.w3.org/2000/svg" viewBox="0 0 1280 281.69"><defs><style>.cls-1{fill:#5e8e3e;}.cls-2{fill:#95bf47;}</style></defs><g id="Layer_2" data-name="Layer 2"><g id="Layer_1-2" data-name="Layer 1"><path d="M309.39,180.72l11.42-21.62c11.07,8.13,25.61,12.63,40,12.63,15.4,0,25.09-5.37,25.09-14.19,0-19.37-60-9-60-47.57,0-24.91,21.8-41,55.36-41,16.26,0,31.31,3.63,41.86,10.38L412.5,100.8c-9.17-6.23-20.93-9.34-32.87-9.34-16.26,0-25.78,6.23-25.78,14.87-.17,19.9,60,9.52,60,46.71,0,25.09-22.14,41.17-55.87,41.17C338.28,194.21,319.6,188.33,309.39,180.72Z" transform="translate(0 0)"/><path d="M534.45,129.52a51.84,51.84,0,0,1-1.21,11.07l-10.38,51.55h-27l10-49.82a28.83,28.83,0,0,0,.69-6.4c0-9.52-5.19-14.88-15.92-14.88-13.66,0-23.18,7.61-26.46,23.87l-9.35,47.23h-27l25.6-128.36h27l-8.65,43.77c8.13-6.75,18.16-9.86,28.71-9.86C520.78,97.69,534.45,108.76,534.45,129.52Z" transform="translate(0 0)"/><path d="M553.64,151.83c0-31,23.53-54.14,56.23-54.14,28.54,0,46.88,16.43,46.88,41.69,0,31-23.36,54.14-56.22,54.14C572.16,193.52,553.64,176.92,553.64,151.83Zm75.78-11.24c0-12.63-7.62-20.59-21.11-20.59C592.39,120,581,132.46,581,150.62c0,12.63,7.78,20.59,21.28,20.59C618,171.21,629.42,158.75,629.42,140.59Z" transform="translate(0 0)"/><path d="M779.56,139.38c0,31.31-22.66,54.14-51.55,54.14-13.49,0-24-4.32-30.1-13.84l-9.17,46h-27L687,99.07h25.61l-1.91,9.17c7.44-6.75,17.13-10.55,28.55-10.55C760.88,97.69,779.56,112.91,779.56,139.38Zm-27.33,1.21C752.23,128,744.45,120,731,120c-15.74,0-27.16,12.46-27.16,30.62,0,12.63,7.62,20.59,21.11,20.59C740.81,171.21,752.23,158.75,752.23,140.59Z" transform="translate(0 0)"/><path d="M809.83,99.07h26.81l-18.51,93.07H791.32Zm2.25-27c0-9,7.09-16.09,17.82-16.09,9.51,0,15.91,5.89,15.91,13.5,0,9.86-7.26,16.61-18,16.61C818.31,86.1,812.08,79.87,812.08,72.08Z" transform="translate(0 0)"/><path d="M876.6,71H924c36.68,0,58,19.55,58,49.65,0,42.73-30.1,71.45-75.42,71.45H852.38Zm30.45,106.05c35.63,0,57.43-23.36,57.43-55.36,0-21.8-14-35.63-42.21-35.63H890.79l-18.17,91Z" transform="translate(0 0)"/><path d="M1012.56,151.49v1c0,16.78,9.35,26.13,29.07,26.13,11.41,0,21.79-4.16,28.37-10.56l7.09,11.94c-9,8.48-22.83,13.15-36.85,13.15-27.16,0-43.94-15.57-43.94-39.79,0-31.14,21.8-53.8,51.73-53.8,24.74,0,41,14.88,41,39.61a69,69,0,0,1-1.21,12.29Zm1.73-12.11h59.17c.86-16.78-9.86-25.95-26.12-25.95C1030.73,113.43,1018.45,123.46,1014.29,139.38Z" transform="translate(0 0)"/><path d="M1203.2,100.45l-58.3,91.69h-17l-22-91.69h16.6L1139.71,174l46.71-73.52Z" transform="translate(0 0)"/><path d="M1194,182.62l7.44-13.14c7.1,5.71,19.38,9.34,31.83,9.34,15.92,0,24-5,24-13.5,0-17.81-50.86-5-50.86-36,0-18.16,16.43-29.75,41.52-29.75,12.11,0,24.56,3.11,32,8.3L1273.43,121c-7.44-5.19-17.65-7.27-27-7.27-15.4,0-23.35,5.71-23.35,13.67,0,18.51,50.68,5.54,50.68,36,0,19-17.12,29.76-42,29.76C1216.17,193.18,1201.46,188.68,1194,182.62Z" transform="translate(0 0)"/><path class="cls-1" d="M253.31,187.67l-147.19,92.4A10.51,10.51,0,0,1,90,271.17V187.86L112,201.63a20,20,0,0,1,9.37,17v15l20.74-13,8.73-5.49,11.18-7,5-3.14,41.63-26.14L167,152.61l-5-3.14-38-23.83a20,20,0,0,1-9.37-17V82.81l3.87,2.44L186.58,128l5,3.14,61.71,38.75A10.51,10.51,0,0,1,253.31,187.67Z" transform="translate(0 0)"/><path class="cls-2" d="M136.91,63.1v-15l-20.74,13-8.73,5.46-11.18,7-5,3.14L49.59,102.92l41.66,26.14,5,3.14,38,23.84a20,20,0,0,1,9.38,17v25.89l-3.88-2.44L71.64,153.7l-5-3.14L4.92,111.82a10.51,10.51,0,0,1,0-17.8L152.1,1.63a10.51,10.51,0,0,1,16.1,8.9V93.81L146.29,80.06A20,20,0,0,1,136.91,63.1Z" transform="translate(0 0)"/></g></g></svg>